<?xml version="1.0" encoding="utf-8"?>
<!-- Generator: Adobe Illustrator 19.0.0, SVG Export Plug-In . SVG Version: 6.00 Build 0)  -->
<svg version="1.0" id="Layer_1" xmlns="http://www.w3.org/2000/svg" xmlns:xlink="http://www.w3.org/1999/xlink" x="0px" y="0px"
	 viewBox="0 0 100 100" enable-background="new 0 0 100 100" xml:space="preserve">
<g id="Instagram_7_" display="none">
	<path id="Instagram_1_" display="inline" fill="#696A6D" d="M68.3,28.7H35.2c-2.9,0-5.2,2.3-5.2,5.2V67c0,2.8,2.3,5.2,5.2,5.2h33.1
		c2.9,0,5.2-2.3,5.2-5.2V33.8C73.5,31,71.2,28.7,68.3,28.7z M61.3,35.5c0-0.7,0.6-1.4,1.4-1.4h4.1c0.7,0,1.4,0.6,1.4,1.4v4.1
		c0,0.7-0.6,1.4-1.4,1.4h-4.1c-0.7,0-1.4-0.6-1.4-1.4V35.5z M51.8,42.1c4.6,0,8.4,3.7,8.4,8.3c0,4.6-3.7,8.3-8.4,8.3
		c-4.6,0-8.4-3.7-8.4-8.3C43.4,45.8,47.2,42.1,51.8,42.1z M69.4,66.7c0,0.7-0.6,1.4-1.4,1.4H35.5c-0.7,0-1.4-0.6-1.4-1.4V46.3h5.4
		c-0.7,1-0.9,2.9-0.9,4.1c0,7.3,5.9,13.2,13.2,13.2c7.3,0,13.2-5.9,13.2-13.2c0-1.2-0.2-3.1-1-4.1h5.4V66.7z"/>
	<path id="XMLID_31_" display="inline" fill="#696A6D" d="M50.6,97.6c-25.8,0-46.8-21-46.8-46.8S24.8,4,50.6,4s46.8,21,46.8,46.8
		S76.4,97.6,50.6,97.6z M50.6,7.6C26.8,7.6,7.4,27,7.4,50.8s19.4,43.2,43.2,43.2s43.2-19.4,43.2-43.2S74.5,7.6,50.6,7.6z"/>
</g>
<g id="Twitter_7_" display="none">
	<path id="Twitter_1_" display="inline" fill="#696A6D" d="M71.1,32.4c-1.8,1.1-3.7,1.8-5.8,2.3c-1.7-1.8-4-2.9-6.7-2.9
		c-5,0-9.1,4.2-9.1,9.3c0,0.7,0.1,1.4,0.2,2.1c-7.6-0.4-14.3-4.1-18.8-9.8c-0.8,1.4-1.2,3-1.2,4.7c0,3.2,1.6,6.1,4.1,7.8
		c-1.5,0-2.9-0.5-4.1-1.2v0.1c0,4.5,3.1,8.3,7.3,9.2c-0.8,0.2-1.6,0.3-2.4,0.3c-0.6,0-1.2-0.1-1.7-0.2c1.2,3.7,4.5,6.4,8.5,6.5
		c-3.1,2.5-7,4-11.3,4c-0.7,0-1.5,0-2.2-0.1c4,2.6,8.8,4.2,14,4.2c16.8,0,25.9-14.2,25.9-26.6c0-0.4,0-0.8,0-1.2
		c1.8-1.3,3.3-3,4.5-4.8c-1.6,0.7-3.4,1.2-5.2,1.5C68.9,36.5,70.4,34.6,71.1,32.4z"/>
	<path id="XMLID_28_" display="inline" fill="#696A6D" d="M50.6,97.6c-25.8,0-46.8-21-46.8-46.8S24.8,4,50.6,4s46.8,21,46.8,46.8
		S76.4,97.6,50.6,97.6z M50.6,7.6C26.8,7.6,7.4,27,7.4,50.8s19.4,43.2,43.2,43.2s43.2-19.4,43.2-43.2S74.5,7.6,50.6,7.6z"/>
</g>
<g id="Facebook_6_" display="none">
	<path id="XMLID_25_" display="inline" fill="#696A6D" d="M50.6,97.3c-25.8,0-46.8-21-46.8-46.8s21-46.8,46.8-46.8
		s46.8,21,46.8,46.8S76.4,97.3,50.6,97.3z M50.6,7.3C26.8,7.3,7.4,26.7,7.4,50.5s19.4,43.2,43.2,43.2s43.2-19.4,43.2-43.2
		S74.5,7.3,50.6,7.3z"/>
	<path id="Facebook_1_" display="inline" fill="#696A6D" d="M72,69c0,1.3-1.1,2.4-2.4,2.4H58.5V54.6h5.7l0.8-6.6h-6.5v-4.2
		c0-1.9,0.5-3.2,3.3-3.2l3.5,0v-5.9c-0.6-0.1-2.7-0.3-5.1-0.3c-5,0-8.5,3.1-8.5,8.7V48h-5.7v6.6h5.7v16.9H30.9
		c-1.3,0-2.4-1.1-2.4-2.4V30.3c0-1.3,1.1-2.4,2.4-2.4h38.7c1.3,0,2.4,1.1,2.4,2.4V69z"/>
</g>
<path id="XMLID_17_" fill="#696A6D" d="M51,4.7c-17.4,0-31.5,14.1-31.5,31.5c0,5.3,1.3,10.4,3.7,14.8l-0.1,0l27.8,45l25.3-40.8
	c4-5.3,6.3-11.8,6.3-19C82.5,18.8,68.4,4.7,51,4.7z M51.2,57.8c-11,0-20-9-20-20s9-20,20-20s20,9,20,20S62.2,57.8,51.2,57.8z"/>
</svg>
